<?xml version="1.0" standalone="no"?>
<!DOCTYPE svg PUBLIC "-//W3C//DTD SVG 20010904//EN"
 "http://www.w3.org/TR/2001/REC-SVG-20010904/DTD/svg10.dtd">
<svg version="1.0" xmlns="http://www.w3.org/2000/svg"
 width="906.000000pt" height="1016.000000pt" viewBox="0 0 906.000000 1016.000000"
 preserveAspectRatio="xMidYMid meet">
<metadata>
Created by potrace 1.12, written by Peter Selinger 2001-2015
</metadata>
<g transform="translate(0.000000,1016.000000) scale(0.100000,-0.100000)"
fill="#333333" stroke="none">
<path d="M1050 10089 c-451 -68 -773 -364 -882 -809 -20 -82 -20 -8278 0
-8360 34 -138 101 -289 170 -385 137 -189 356 -341 572 -396 153 -40 70 -39
3612 -39 2273 0 3413 3 3461 10 132 19 218 45 327 97 285 137 482 387 562 713
11 45 13 582 13 3085 l0 3030 -32 65 c-29 60 -153 186 -1470 1501 -1011 1010
-1450 1441 -1478 1454 -103 47 2 45 -2470 44 -1282 -1 -2355 -5 -2385 -10z
m4451 -1695 c3 -516 9 -952 13 -969 28 -117 33 -131 84 -235 87 -179 252 -336
431 -411 186 -78 208 -79 1223 -79 l878 0 -2 -2822 -3 -2823 -22 -40 c-27 -50
-53 -78 -106 -113 l-42 -27 -3409 -3 c-2324 -1 -3421 1 -3447 8 -53 15 -118
67 -154 125 l-30 48 0 4046 0 4046 27 46 c29 49 70 88 122 117 29 16 177 17
2221 22 1205 3 2195 5 2200 4 7 0 12 -325 16 -940z m1351 -341 c483 -483 878
-881 878 -885 0 -5 -316 -8 -702 -8 -555 0 -714 3 -753 14 -143 38 -248 136
-294 276 -21 62 -21 80 -21 772 0 389 3 708 7 708 5 0 403 -395 885 -877z"/>
<path d="M2970 8905 c-359 -72 -690 -323 -849 -642 -82 -165 -99 -220 -126
-413 -18 -125 -19 -177 -5 -273 40 -275 127 -478 282 -659 26 -31 48 -60 48
-65 0 -4 -24 -19 -53 -32 -147 -69 -336 -228 -437 -368 -65 -91 -127 -214
-162 -320 -27 -85 -29 -97 -18 -141 6 -27 20 -62 30 -79 22 -36 92 -87 135
-97 39 -10 2741 -10 2780 0 51 12 105 53 135 101 25 40 30 57 30 112 0 100
-54 232 -157 388 -105 159 -304 332 -463 404 -55 25 -60 37 -29 65 45 40 137
174 183 270 72 145 74 153 117 344 16 70 16 336 0 415 -19 90 -37 156 -60 220
-24 62 -109 223 -148 277 -109 150 -302 312 -473 396 -73 35 -225 84 -316 101
-80 15 -362 12 -444 -4z m450 -465 c134 -43 240 -107 328 -197 58 -59 140
-179 161 -234 7 -19 17 -43 21 -54 51 -131 54 -348 5 -490 -141 -412 -576
-624 -987 -481 -209 73 -391 255 -464 463 -42 123 -58 304 -33 397 6 22 15 59
21 81 6 22 29 77 50 121 99 208 324 376 553 415 84 14 272 2 345 -21z m381
-1980 c91 -22 153 -50 234 -103 67 -45 105 -76 105 -89 0 -4 -418 -8 -930 -8
-511 0 -930 4 -930 8 0 12 59 65 110 99 70 46 131 71 250 102 19 5 271 10 560
10 486 1 531 -1 601 -19z"/>
<path d="M1769 5300 c-91 -48 -144 -162 -118 -252 21 -74 64 -125 129 -156 33
-16 219 -17 2745 -17 l2710 0 46 27 c51 30 89 81 108 146 26 92 -36 220 -126
257 -31 13 -387 15 -2747 15 -2657 -1 -2712 -1 -2747 -20z"/>
<path d="M1810 3763 c-83 -28 -132 -78 -156 -159 -13 -46 -14 -63 -4 -105 16
-65 63 -126 120 -155 l45 -23 2703 -1 2702 0 45 21 c93 44 149 154 125 246 -6
25 -17 58 -25 73 -21 40 -79 87 -122 99 -39 11 -5402 15 -5433 4z"/>
<path d="M1789 2201 c-84 -42 -124 -91 -141 -174 -21 -105 52 -218 163 -251
47 -14 334 -16 2709 -16 2996 0 2727 -8 2810 79 107 110 78 284 -60 353 l-55
28 -2695 -1 c-2578 0 -2697 -1 -2731 -18z"/>
</g>
</svg>
